<svg xmlns="http://www.w3.org/2000/svg" width="350.25" viewBox="0 0 350.25 343.5" height="343.5" version="1.0"><defs><clipPath id="a"><path d="M 113 17 L 313 17 L 313 196 L 113 196 Z M 113 17"/></clipPath><clipPath id="b"><path d="M 34.277344 78.550781 L 240.550781 -37.125 L 347.804688 154.136719 L 141.53125 269.808594 Z M 34.277344 78.550781"/></clipPath><clipPath id="c"><path d="M 34.277344 78.550781 L 240.550781 -37.125 L 347.804688 154.136719 L 141.53125 269.808594 Z M 34.277344 78.550781"/></clipPath><clipPath id="d"><path d="M 34.277344 97.539062 L 158 97.539062 L 158 244 L 34.277344 244 Z M 34.277344 97.539062"/></clipPath><clipPath id="e"><path d="M 78 179.304688 L 321.933594 179.304688 L 321.933594 293.808594 L 78 293.808594 Z M 78 179.304688"/></clipPath></defs><g clip-path="url(#a)"><g clip-path="url(#b)"><g clip-path="url(#c)"><path fill="#6B90BF" d="M 307.109375 102.277344 C 307.109375 102.277344 213.402344 -21.839844 169.019531 29.484375 C 124.640625 80.804688 77.847656 156.261719 153.328125 188.515625 C 228.808594 220.769531 339.394531 139.140625 307.109375 102.277344"/></g></g></g><g clip-path="url(#d)"><path fill="#C4E1F2" d="M 94.910156 97.820312 C 87.546875 97.820312 80.019531 98.875 72.886719 100.632812 C 60.4375 103.695312 50.027344 109.40625 44.804688 121.636719 C 43.882812 123.796875 43.105469 126.019531 42.398438 128.261719 C 38.234375 141.472656 35.886719 155.234375 35.167969 169.070312 C 34.273438 186.273438 36.023438 204.054688 43.777344 219.429688 C 47.355469 226.527344 52.382812 233.183594 59.355469 236.980469 C 66.417969 240.824219 74.742188 241.386719 82.765625 241.863281 C 92.953125 242.472656 103.136719 243.078125 113.324219 243.6875 C 117.847656 243.957031 122.546875 244.199219 126.738281 242.480469 C 131.003906 240.738281 134.113281 237.199219 136.546875 233.394531 C 139.003906 229.554688 141.566406 225.457031 143.59375 221.398438 C 145.8125 216.949219 148.601562 212.996094 150.324219 208.257812 C 152.148438 203.230469 153.265625 197.96875 153.972656 192.675781 C 155.265625 182.96875 155.21875 173.136719 156.015625 163.375 C 156.84375 153.238281 158.515625 142.632812 154.714844 133.203125 C 152.410156 127.496094 148.238281 122.699219 143.46875 118.8125 C 135.53125 112.347656 126.128906 108.121094 117.292969 103.09375 C 110.960938 99.492188 102.199219 97.558594 94.910156 97.820312"/></g><g clip-path="url(#e)"><path fill="#233240" d="M 321.238281 193.605469 C 321.238281 201.496094 314.808594 207.90625 306.890625 207.90625 L 242.960938 207.90625 C 235.042969 207.90625 228.613281 214.3125 228.613281 222.207031 C 228.613281 230.097656 235.042969 236.503906 242.960938 236.503906 L 283.347656 236.503906 C 291.265625 236.503906 297.695312 242.914062 297.695312 250.804688 C 297.695312 258.695312 291.265625 265.105469 283.347656 265.105469 L 263.738281 265.105469 C 271.65625 265.105469 278.085938 271.511719 278.085938 279.40625 C 278.085938 287.296875 271.65625 293.703125 263.738281 293.703125 L 93 293.703125 C 85.082031 293.703125 78.652344 287.296875 78.652344 279.40625 C 78.652344 271.511719 85.082031 265.105469 93 265.105469 L 112.609375 265.105469 C 112.449219 265.105469 112.289062 265.105469 112.183594 265.105469 C 119.890625 264.894531 126.105469 258.539062 126.105469 250.804688 C 126.105469 243.019531 119.890625 236.71875 112.183594 236.503906 C 112.34375 236.503906 112.503906 236.503906 112.609375 236.503906 L 93 236.503906 C 85.082031 236.503906 78.652344 230.097656 78.652344 222.207031 C 78.652344 214.3125 85.082031 207.90625 93 207.90625 L 136.148438 207.90625 C 128.230469 207.90625 121.800781 201.496094 121.800781 193.605469 C 121.800781 185.714844 128.230469 179.304688 136.148438 179.304688 L 306.890625 179.304688 C 314.808594 179.304688 321.238281 185.714844 321.238281 193.605469 Z M 298.332031 265.210938 C 290.414062 265.210938 283.984375 271.617188 283.984375 279.511719 C 283.984375 287.402344 290.414062 293.808594 298.332031 293.808594 C 306.25 293.808594 312.679688 287.402344 312.679688 279.511719 C 312.679688 271.617188 306.25 265.210938 298.332031 265.210938 Z M 298.332031 265.210938"/></g></svg>