<svg xmlns="http://www.w3.org/2000/svg" width="516.75" viewBox="0 0 516.75 755.25" height="755.25" version="1.0"><defs><clipPath id="a"><path d="M 0.132812 18 L 407 18 L 407 754.5 L 0.132812 754.5 Z M 0.132812 18"/></clipPath></defs><g clip-path="url(#a)"><path fill="#6B90BF" d="M -9.691406 29.457031 C -87.65625 81.15625 -69.023438 145.710938 -49.3125 216.148438 C -41.660156 242.636719 -28.226562 264.710938 -29.207031 288.941406 C -30.285156 316.605469 -44.898438 344.664062 -54.3125 370.664062 C -70.496094 415.59375 -85.5 481.714844 -84.125 529.984375 C -83.441406 552.351562 -76.476562 579.035156 -69.414062 601.695312 C -57.550781 638.386719 -25.1875 679.789062 1.195312 701.664062 C 16.394531 714.417969 28.261719 728.054688 44.640625 736 C 121.820312 772.496094 216.261719 755.621094 307.761719 722.660156 C 323.648438 716.96875 345.519531 703.824219 355.816406 693.226562 L 370.332031 683.515625 C 384.84375 668.210938 395.730469 649.867188 402.300781 629.753906 C 423.582031 565.203125 349.734375 473.574219 329.140625 398.820312 C 321.296875 370.566406 320.902344 341.425781 322.472656 314.742188 C 324.042969 288.15625 336.988281 263.925781 327.671875 234.496094 C 314.332031 192.210938 261.964844 157.386719 236.660156 138.746094 C 209.984375 119.222656 184.09375 102.054688 159.480469 85.082031 L 135.941406 56.4375 C 120.742188 44.957031 89.066406 31.519531 71.019531 24.945312 C 54.25 19.449219 36.402344 17.683594 18.847656 19.941406 C 9.136719 21.707031 -0.179688 29.457031 -9.691406 29.457031"/></g></svg>