<svg xmlns="http://www.w3.org/2000/svg" width="516.75" viewBox="0 0 516.75 755.25" height="755.25" version="1.0"><defs><clipPath id="a"><path d="M 31.03125 9.390625 L 516.367188 9.390625 L 516.367188 745 L 31.03125 745 Z M 31.03125 9.390625"/></clipPath></defs><g clip-path="url(#a)"><path fill="#C4E1F2" d="M 804.21875 408.820312 C 799.894531 392.457031 793.132812 377.167969 783.9375 362.960938 C 777.617188 354.507812 772.28125 345.476562 767.929688 335.863281 C 763.582031 326.25 760.316406 316.277344 758.140625 305.953125 C 757.292969 301.261719 756.351562 296.542969 755.453125 291.824219 C 754.511719 286.527344 753.808594 281.175781 752.761719 275.878906 C 750.207031 262.945312 747.703125 249.996094 744.867188 237.117188 C 743.183594 229.507812 741.050781 222.03125 738.464844 214.679688 C 731.246094 196.144531 721.917969 178.742188 710.476562 162.472656 C 705.164062 154.835938 700.511719 146.8125 696.527344 138.402344 C 692.546875 129.996094 689.28125 121.316406 686.738281 112.363281 C 685.117188 106.230469 682.757812 100.390625 679.65625 94.851562 C 676.558594 89.3125 672.816406 84.246094 668.4375 79.652344 C 661.707031 72.777344 654.425781 66.542969 646.59375 60.953125 C 637.449219 54.164062 627.765625 48.167969 618.164062 41.96875 C 607.511719 35.125 595.019531 32.074219 584.324219 25.335938 C 581.589844 24.066406 578.71875 23.261719 575.71875 22.929688 C 559.285156 19.234375 542.648438 16.933594 525.957031 14.542969 C 514.042969 12.527344 502.113281 12.441406 490.167969 14.285156 C 485.429688 15.25 480.679688 15.289062 475.925781 14.394531 C 462.867188 11.6875 449.722656 11.171875 436.492188 12.847656 C 432.636719 13.503906 428.757812 13.648438 424.859375 13.285156 C 420.960938 12.921875 417.179688 12.058594 413.507812 10.695312 C 411.84375 9.925781 410.09375 9.605469 408.265625 9.742188 C 393.925781 11.054688 379.578125 11.121094 365.226562 9.945312 C 364.03125 9.945312 362.847656 10.078125 361.675781 10.332031 C 343.140625 12.359375 324.761719 15.34375 306.535156 19.289062 C 294.804688 21.84375 283.3125 25.203125 272.050781 29.371094 C 256.359375 35.367188 241.214844 42.707031 225.625 48.90625 C 212.679688 53.914062 200.457031 60.308594 188.964844 68.089844 C 183.511719 71.839844 177.914062 75.339844 172.167969 78.59375 C 159.210938 86.222656 146.898438 94.78125 135.234375 104.269531 C 115.496094 120.976562 97.40625 139.308594 80.96875 159.273438 C 79.378906 161.085938 77.980469 163.035156 76.773438 165.121094 C 70.167969 175.878906 63.875 186.808594 57.082031 197.390625 C 48.394531 211.960938 42.3125 227.546875 38.832031 244.148438 C 34.128906 265.917969 31.527344 287.9375 31.03125 310.203125 C 30.894531 312.609375 30.980469 315.003906 31.289062 317.394531 C 34.285156 336.984375 36.410156 356.613281 40.339844 376.09375 C 45.71875 402.632812 54.324219 428.261719 61.980469 454.140625 C 65.179688 465.085938 68.917969 475.867188 72.738281 486.609375 C 75.144531 493.332031 77.835938 500.054688 80.886719 506.589844 C 88.957031 524.066406 97.230469 541.371094 105.472656 558.660156 C 109.035156 566.292969 113.265625 573.535156 118.167969 580.386719 C 127.8125 593.425781 137.066406 606.765625 146.761719 619.699219 C 152.90625 627.84375 159.457031 635.695312 166.15625 643.386719 C 184.015625 663.894531 204.355469 681.546875 227.171875 696.34375 C 248.039062 710.695312 270.242188 722.535156 293.785156 731.867188 C 304.089844 736.121094 314.707031 739.332031 325.640625 741.5 C 336.574219 743.667969 347.613281 744.757812 358.757812 744.757812 C 370.148438 744.355469 381.542969 744.652344 392.984375 744.652344 L 392.984375 745 C 405.589844 744.800781 418.175781 744.503906 430.820312 744.355469 C 451.308594 744.003906 471.453125 741.171875 491.246094 735.859375 C 512.734375 730.023438 534.558594 725.988281 556.714844 723.757812 C 576.996094 721.417969 597.070312 717.90625 616.941406 713.21875 C 633.335938 709.761719 649.417969 704.816406 665.664062 700.417969 C 671.816406 698.902344 677.726562 696.734375 683.398438 693.914062 C 689.074219 691.089844 694.367188 687.683594 699.289062 683.695312 C 704.90625 679.652344 710.003906 675.039062 714.585938 669.851562 C 719.164062 664.664062 723.113281 659.035156 726.429688 652.960938 C 728.324219 649.203125 730.503906 645.617188 732.964844 642.203125 C 747.503906 620.121094 760.3125 597.078125 771.386719 573.070312 C 777.398438 559.910156 781.828125 546.238281 784.675781 532.050781 C 785.683594 527.359375 786.679688 522.640625 787.367188 517.910156 C 790.964844 492.90625 796.566406 468.363281 804.164062 444.273438 C 805.101562 441.410156 805.808594 438.496094 806.285156 435.523438 C 806.765625 432.550781 807.003906 429.558594 807.007812 426.550781 C 807.015625 423.539062 806.78125 420.546875 806.3125 417.574219 C 805.84375 414.601562 805.148438 411.683594 804.21875 408.820312 Z M 804.21875 408.820312"/></g></svg>